<?xml version="1.0" encoding="utf-8"?>
<!-- Generator: Adobe Illustrator 27.0.0, SVG Export Plug-In . SVG Version: 6.00 Build 0)  -->
<svg version="1.1" id="Layer_1" xmlns="http://www.w3.org/2000/svg" xmlns:xlink="http://www.w3.org/1999/xlink" x="0px" y="0px"
	 viewBox="0 0 2000 765.43" style="enable-background:new 0 0 2000 765.43;" xml:space="preserve">
<style type="text/css">
	.st0{fill:#FFFFFF;}
	.st1{fill:#273566;}
	.st2{fill:#52318A;}
</style>
<g>
	<g>
		<g>
			<g>
				<path class="st2" d="M979.93,523.82L841.92,242.69h63.89l103.76,225.92l103.76-225.92h63.89l-138.01,281.13H979.93z"/>
				<path class="st2" d="M1197.66,242.69h11.76c28.11,0,70.02,9.2,70.02,46v150.28c0,23,4.09,33.22,28.11,33.22h3.58l0.51,46.51
					c-58.27,0-89.96-13.29-89.96-62.87V314.76c0-10.73,0-25.56-12.27-25.56h-11.76V242.69z M1250.81,146.09
					c20.45,0,34.25,12.78,34.25,32.71c0,19.42-13.8,32.71-34.25,32.71c-20.44,0-34.25-13.29-34.25-32.71
					C1216.57,158.87,1230.37,146.09,1250.81,146.09z"/>
				<path class="st2" d="M1361.21,518.7V314.76c0-10.73,0-25.56-12.27-25.56h-11.76v-46.51h11.76c27.09,0,67.47,8.69,70.02,42.42
					c19.93-28.11,53.67-48.05,98.65-48.05c77.69,0,124.72,39.36,124.72,119.09v83.31c0,23,5.11,32.71,29.13,32.71h3.58l0.51,46.51
					c-42.93,0-91.49-7.67-91.49-64.91v-74.12c0-61.34-16.36-96.6-80.25-96.6c-46,0-84.85,31.69-84.85,83.31V518.7H1361.21z"/>
				<path class="st2" d="M1725.13,518.7V314.76c0-10.73,0-25.56-12.27-25.56h-11.75v-46.51h11.75c28.11,0,70.03,9.2,70.03,46v1.53
					c20.44-29.65,50.09-51.62,87.91-51.62c14.82,0,30.67,3.58,47.54,10.73l-13.8,46.51c-8.18-3.07-17.89-4.6-28.11-4.6
					c-42.42,0-93.54,27.09-93.54,70.03V518.7H1725.13z"/>
			</g>
		</g>
	</g>
	<g>
		<polygon class="st2" points="448.97,569.47 347.87,480.75 306.88,516.72 407.98,605.44 439.27,632.9 439.27,632.9 449.01,641.44 
			490,605.47 448.97,569.47 		"/>
		<path class="st2" d="M286.87,534.28l-38.25-33.56l-40.99-35.97l-38.25-33.56l-28.82-25.29V161.31l3.05,2.68l0,0l57.95,50.85l0,0
			l107.17,94.04l40.99-35.97l-87.15-76.48L143.62,92.05l-3.05-2.68c-21.4-18.78-57.95-5.49-57.95,21.05v316.56l84.03,73.73
			l40.99,35.97l162.8,142.86c9.7,8.51,25.38,8.51,35.08,0.03L429,659l-41.03-36L286.87,534.28z"/>
		<polygon class="st2" points="509.97,515.94 509.97,515.94 408.87,427.22 367.88,463.19 468.98,551.91 510.01,587.91 551,551.94 
			541.26,543.4 		"/>
		<path class="st2" d="M635.37,89.38l-71.86,63.05l-38.25,33.56l-137.3,120.48l-30.87,27.09l-10.12,8.88l-17.35,15.25l-13.52,11.83
			l-8.13,7.15l-19.34,16.95v0.03l40.99,35.97v-0.03l40.99-35.93l17.35-15.26l40.99-35.97l206.41-181.13V405.9l-67.03,58.85
			L467.2,376l-40.99,35.97l101.14,88.75l40.99,35.97l40.99-35.97l83.99-73.73V110.43C693.32,83.88,656.77,70.6,635.37,89.38z"/>
	</g>
</g>
</svg>
